<?xml version="1.0" encoding="UTF-8" standalone="no"?><!DOCTYPE svg PUBLIC "-//W3C//DTD SVG 1.1//EN" "http://www.w3.org/Graphics/SVG/1.1/DTD/svg11.dtd"><!-- Generated by graphviz version 2.40.1 (20161225.0304)
 --><!-- Title: Trees Pages: 1 --><svg xmlns="http://www.w3.org/2000/svg" xmlns:xlink="http://www.w3.org/1999/xlink" width="345pt" height="423pt" viewBox="0.00 0.00 344.94 423.33">
<g id="graph0" class="graph" transform="scale(1 1) rotate(0) translate(4 419.3251)">
<title>Trees</title>
<polygon fill="#ffffff" stroke="transparent" points="-4,4 -4,-419.3251 340.9362,-419.3251 340.9362,4 -4,4"/>
<!-- node_0 -->
<g id="node1" class="node">
<title>node_0</title>
<ellipse fill="none" stroke="#000000" cx="146.9362" cy="-385.9095" rx="33.7241" ry="29.3315"/>
<text text-anchor="middle" x="146.9362" y="-390.1095" font-family="Times,serif" font-size="14.00" fill="#000000">Suma</text>
<text text-anchor="middle" x="146.9362" y="-373.3095" font-family="Times,serif" font-size="14.00" fill="#000000">13.0</text>
</g>
<!-- node_0_left -->
<g id="node2" class="node">
<title>node_0_left</title>
<ellipse fill="none" stroke="#000000" cx="85.9362" cy="-291.0782" rx="41.0184" ry="29.3315"/>
<text text-anchor="middle" x="85.9362" y="-295.2782" font-family="Times,serif" font-size="14.00" fill="#000000">Coseno</text>
<text text-anchor="middle" x="85.9362" y="-278.4782" font-family="Times,serif" font-size="14.00" fill="#000000">1.0</text>
</g>
<!-- node_0&#45;&gt;node_0_left -->
<g id="edge6" class="edge">
<title>node_0-&gt;node_0_left</title>
<path fill="none" stroke="#000000" d="M130.2676,-359.9964C123.643,-349.6978 115.914,-337.6821 108.7819,-326.5944"/>
<polygon fill="#000000" stroke="#000000" points="111.5761,-324.4687 103.2226,-317.9519 105.6889,-328.2557 111.5761,-324.4687"/>
</g>
<!-- node_0_right -->
<g id="node8" class="node">
<title>node_0_right</title>
<ellipse fill="none" stroke="#000000" cx="172.9362" cy="-291.0782" rx="27.8725" ry="18"/>
<text text-anchor="middle" x="172.9362" y="-286.8782" font-family="Times,serif" font-size="14.00" fill="#000000">12.0</text>
</g>
<!-- node_0&#45;&gt;node_0_right -->
<g id="edge7" class="edge">
<title>node_0-&gt;node_0_right</title>
<path fill="none" stroke="#000000" d="M154.8076,-357.1996C158.1369,-345.0566 162.0006,-330.9642 165.3036,-318.917"/>
<polygon fill="#000000" stroke="#000000" points="168.7655,-319.5266 168.0343,-308.957 162.0147,-317.6757 168.7655,-319.5266"/>
</g>
<!-- node_0_left_left -->
<g id="node3" class="node">
<title>node_0_left_left</title>
<ellipse fill="none" stroke="#000000" cx="85.9362" cy="-196.2469" rx="33.112" ry="29.3315"/>
<text text-anchor="middle" x="85.9362" y="-200.4469" font-family="Times,serif" font-size="14.00" fill="#000000">Resta</text>
<text text-anchor="middle" x="85.9362" y="-183.6469" font-family="Times,serif" font-size="14.00" fill="#000000">0.0</text>
</g>
<!-- node_0_left&#45;&gt;node_0_left_left -->
<g id="edge5" class="edge">
<title>node_0_left-&gt;node_0_left_left</title>
<path fill="none" stroke="#000000" d="M85.9362,-261.5928C85.9362,-253.4754 85.9362,-244.5358 85.9362,-235.9436"/>
<polygon fill="#000000" stroke="#000000" points="89.4363,-235.714 85.9362,-225.7141 82.4363,-235.7141 89.4363,-235.714"/>
</g>
<!-- node_0_left_left_left -->
<g id="node4" class="node">
<title>node_0_left_left_left</title>
<ellipse fill="none" stroke="#000000" cx="27.9362" cy="-101.4156" rx="27.8725" ry="18"/>
<text text-anchor="middle" x="27.9362" y="-97.2156" font-family="Times,serif" font-size="14.00" fill="#000000">45.0</text>
</g>
<!-- node_0_left_left&#45;&gt;node_0_left_left_left -->
<g id="edge1" class="edge">
<title>node_0_left_left-&gt;node_0_left_left_left</title>
<path fill="none" stroke="#000000" d="M70.0874,-170.3339C61.8574,-156.8776 51.8346,-140.4901 43.6276,-127.0715"/>
<polygon fill="#000000" stroke="#000000" points="46.4838,-125.0333 38.2803,-118.3286 40.5122,-128.6857 46.4838,-125.0333"/>
</g>
<!-- node_0_left_left_right -->
<g id="node5" class="node">
<title>node_0_left_left_right</title>
<ellipse fill="none" stroke="#000000" cx="143.9362" cy="-101.4156" rx="69.704" ry="29.3315"/>
<text text-anchor="middle" x="143.9362" y="-105.6156" font-family="Times,serif" font-size="14.00" fill="#000000">Multiplicacion</text>
<text text-anchor="middle" x="143.9362" y="-88.8156" font-family="Times,serif" font-size="14.00" fill="#000000">45.0</text>
</g>
<!-- node_0_left_left&#45;&gt;node_0_left_left_right -->
<g id="edge4" class="edge">
<title>node_0_left_left-&gt;node_0_left_left_right</title>
<path fill="none" stroke="#000000" d="M101.7849,-170.3339C107.7593,-160.5656 114.6785,-149.2526 121.1619,-138.652"/>
<polygon fill="#000000" stroke="#000000" points="124.2434,-140.3217 126.4753,-129.9646 118.2718,-136.6693 124.2434,-140.3217"/>
</g>
<!-- node_0_left_left_right_left -->
<g id="node6" class="node">
<title>node_0_left_left_right_left</title>
<ellipse fill="none" stroke="#000000" cx="107.9362" cy="-18" rx="27" ry="18"/>
<text text-anchor="middle" x="107.9362" y="-13.8" font-family="Times,serif" font-size="14.00" fill="#000000">9.0</text>
</g>
<!-- node_0_left_left_right&#45;&gt;node_0_left_left_right_left -->
<g id="edge2" class="edge">
<title>node_0_left_left_right-&gt;node_0_left_left_right_left</title>
<path fill="none" stroke="#000000" d="M131.3451,-72.2409C127.5148,-63.3658 123.3243,-53.6559 119.5608,-44.9355"/>
<polygon fill="#000000" stroke="#000000" points="122.7111,-43.402 115.5351,-35.6075 116.2841,-46.1758 122.7111,-43.402"/>
</g>
<!-- node_0_left_left_right_right -->
<g id="node7" class="node">
<title>node_0_left_left_right_right</title>
<ellipse fill="none" stroke="#000000" cx="179.9362" cy="-18" rx="27" ry="18"/>
<text text-anchor="middle" x="179.9362" y="-13.8" font-family="Times,serif" font-size="14.00" fill="#000000">5.0</text>
</g>
<!-- node_0_left_left_right&#45;&gt;node_0_left_left_right_right -->
<g id="edge3" class="edge">
<title>node_0_left_left_right-&gt;node_0_left_left_right_right</title>
<path fill="none" stroke="#000000" d="M156.5272,-72.2409C160.3575,-63.3658 164.548,-53.6559 168.3115,-44.9355"/>
<polygon fill="#000000" stroke="#000000" points="171.5882,-46.1758 172.3372,-35.6075 165.1612,-43.402 171.5882,-46.1758"/>
</g>
<!-- node_1 -->
<g id="node9" class="node">
<title>node_1</title>
<ellipse fill="none" stroke="#000000" cx="273.9362" cy="-385.9095" rx="40.9967" ry="29.3315"/>
<text text-anchor="middle" x="273.9362" y="-390.1095" font-family="Times,serif" font-size="14.00" fill="#000000">Inverso</text>
<text text-anchor="middle" x="273.9362" y="-373.3095" font-family="Times,serif" font-size="14.00" fill="#000000">0.25</text>
</g>
<!-- node_1_left -->
<g id="node10" class="node">
<title>node_1_left</title>
<ellipse fill="none" stroke="#000000" cx="273.9362" cy="-291.0782" rx="29.4111" ry="29.3315"/>
<text text-anchor="middle" x="273.9362" y="-295.2782" font-family="Times,serif" font-size="14.00" fill="#000000">Raiz</text>
<text text-anchor="middle" x="273.9362" y="-278.4782" font-family="Times,serif" font-size="14.00" fill="#000000">4.0</text>
</g>
<!-- node_1&#45;&gt;node_1_left -->
<g id="edge10" class="edge">
<title>node_1-&gt;node_1_left</title>
<path fill="none" stroke="#000000" d="M273.9362,-356.4241C273.9362,-348.3067 273.9362,-339.3671 273.9362,-330.7749"/>
<polygon fill="#000000" stroke="#000000" points="277.4363,-330.5453 273.9362,-320.5454 270.4363,-330.5454 277.4363,-330.5453"/>
</g>
<!-- node_1_left_left -->
<g id="node11" class="node">
<title>node_1_left_left</title>
<ellipse fill="none" stroke="#000000" cx="236.9362" cy="-196.2469" rx="27.8725" ry="18"/>
<text text-anchor="middle" x="236.9362" y="-192.0469" font-family="Times,serif" font-size="14.00" fill="#000000">16.0</text>
</g>
<!-- node_1_left&#45;&gt;node_1_left_left -->
<g id="edge8" class="edge">
<title>node_1_left-&gt;node_1_left_left</title>
<path fill="none" stroke="#000000" d="M263.2342,-263.6491C258.283,-250.9591 252.4197,-235.9314 247.4873,-223.2895"/>
<polygon fill="#000000" stroke="#000000" points="250.6618,-221.7965 243.7663,-213.7527 244.1406,-224.3409 250.6618,-221.7965"/>
</g>
<!-- node_1_left_right -->
<g id="node12" class="node">
<title>node_1_left_right</title>
<ellipse fill="none" stroke="#000000" cx="309.9362" cy="-196.2469" rx="27" ry="18"/>
<text text-anchor="middle" x="309.9362" y="-192.0469" font-family="Times,serif" font-size="14.00" fill="#000000">2.0</text>
</g>
<!-- node_1_left&#45;&gt;node_1_left_right -->
<g id="edge9" class="edge">
<title>node_1_left-&gt;node_1_left_right</title>
<path fill="none" stroke="#000000" d="M284.4456,-263.3941C289.2274,-250.798 294.8676,-235.9406 299.6252,-223.408"/>
<polygon fill="#000000" stroke="#000000" points="302.9413,-224.5344 303.2183,-213.9432 296.397,-222.05 302.9413,-224.5344"/>
</g>
</g>
</svg>